<?xml version="1.0" encoding="UTF-8"?>
<svg version="1.1" xmlns="http://www.w3.org/2000/svg" width="500" height="500">
<path d="M0 0 C1.07314453 0.01450195 1.07314453 0.01450195 2.16796875 0.02929688 C5.30764331 0.09678521 7.88054377 0.31434792 10.875 1.3125 C10.875 1.9725 10.875 2.6325 10.875 3.3125 C12.0815625 3.7146875 12.0815625 3.7146875 13.3125 4.125 C14.158125 4.516875 15.00375 4.90875 15.875 5.3125 C16.205 6.3025 16.535 7.2925 16.875 8.3125 C17.865 8.6425 18.855 8.9725 19.875 9.3125 C19.875 9.9725 19.875 10.6325 19.875 11.3125 C20.865 11.6425 21.855 11.9725 22.875 12.3125 C22.875 12.9725 22.875 13.6325 22.875 14.3125 C23.865 14.6425 24.855 14.9725 25.875 15.3125 C25.875 15.9725 25.875 16.6325 25.875 17.3125 C26.865 17.6425 27.855 17.9725 28.875 18.3125 C28.875 19.9625 28.875 21.6125 28.875 23.3125 C29.535 23.3125 30.195 23.3125 30.875 23.3125 C30.875 24.3025 30.875 25.2925 30.875 26.3125 C31.473125 26.35375 32.07125 26.395 32.6875 26.4375 C34.875 27.3125 34.875 27.3125 36.625 30.25 C37.875 33.3125 37.875 33.3125 37.875 35.3125 C38.865 35.3125 39.855 35.3125 40.875 35.3125 C40.875 34.6525 40.875 33.9925 40.875 33.3125 C45.165 32.9825 49.455 32.6525 53.875 32.3125 C53.875 31.6525 53.875 30.9925 53.875 30.3125 C58.165 29.9825 62.455 29.6525 66.875 29.3125 C66.875 28.6525 66.875 27.9925 66.875 27.3125 C71.63807437 26.35988513 76.0416528 26.22916643 80.875 26.3125 C80.875 25.6525 80.875 24.9925 80.875 24.3125 C83.86980917 23.4401588 86.51075911 23.20420234 89.625 23.25 C90.42421875 23.25902344 91.2234375 23.26804687 92.046875 23.27734375 C92.65015625 23.28894531 93.2534375 23.30054687 93.875 23.3125 C93.875 22.6525 93.875 21.9925 93.875 21.3125 C99.815 21.3125 105.755 21.3125 111.875 21.3125 C111.875 21.9725 111.875 22.6325 111.875 23.3125 C112.638125 23.415625 113.40125 23.51875 114.1875 23.625 C117.09367978 24.36844134 118.07413049 24.97136963 119.875 27.3125 C121.8845763 33.34122891 121.16979052 40.16224502 119.875 46.3125 C119.215 46.3125 118.555 46.3125 117.875 46.3125 C117.545 48.9525 117.215 51.5925 116.875 54.3125 C116.215 54.3125 115.555 54.3125 114.875 54.3125 C114.545 56.2925 114.215 58.2725 113.875 60.3125 C113.215 60.3125 112.555 60.3125 111.875 60.3125 C111.73771484 61.09367187 111.73771484 61.09367187 111.59765625 61.890625 C110.61373748 65.18808251 108.97359834 68.06923368 107.3125 71.0625 C106.98314453 71.66449219 106.65378906 72.26648438 106.31445312 72.88671875 C105.5053535 74.36420503 104.69072338 75.83866036 103.875 77.3125 C103.215 77.3125 102.555 77.3125 101.875 77.3125 C100.885 80.6125 99.895 83.9125 98.875 87.3125 C98.215 87.3125 97.555 87.3125 96.875 87.3125 C96.875 87.9725 96.875 88.6325 96.875 89.3125 C95.5 90.9375 95.5 90.9375 93.875 92.3125 C93.215 92.3125 92.555 92.3125 91.875 92.3125 C91.875 94.2925 91.875 96.2725 91.875 98.3125 C90.555 98.3125 89.235 98.3125 87.875 98.3125 C87.68164062 99.06015625 87.48828125 99.8078125 87.2890625 100.578125 C87.02867187 101.56296875 86.76828125 102.5478125 86.5 103.5625 C86.24476563 104.53703125 85.98953125 105.5115625 85.7265625 106.515625 C84.97901491 108.97087303 84.10376183 111.06867405 82.875 113.3125 C83.535 113.3125 84.195 113.3125 84.875 113.3125 C85.205 115.6225 85.535 117.9325 85.875 120.3125 C86.535 120.3125 87.195 120.3125 87.875 120.3125 C88.54854499 121.74679001 89.21359701 123.18507057 89.875 124.625 C90.24625 125.42550781 90.6175 126.22601563 91 127.05078125 C91.875 129.3125 91.875 129.3125 91.875 132.3125 C92.535 132.3125 93.195 132.3125 93.875 132.3125 C94.205 133.6325 94.535 134.9525 94.875 136.3125 C95.535 136.3125 96.195 136.3125 96.875 136.3125 C96.875 137.3025 96.875 138.2925 96.875 139.3125 C97.865 139.6425 98.855 139.9725 99.875 140.3125 C99.875 140.9725 99.875 141.6325 99.875 142.3125 C100.535 142.6425 101.195 142.9725 101.875 143.3125 C102.5 146.375 102.5 146.375 102.875 149.3125 C103.535 149.3125 104.195 149.3125 104.875 149.3125 C105.205 151.2925 105.535 153.2725 105.875 155.3125 C106.535 155.3125 107.195 155.3125 107.875 155.3125 C108.55095315 156.72475926 109.21540059 158.14252905 109.875 159.5625 C110.24625 160.35140625 110.6175 161.1403125 111 161.953125 C111.875 164.3125 111.875 164.3125 111.875 168.3125 C110.555 167.9825 109.235 167.6525 107.875 167.3125 C107.875 166.3225 107.875 165.3325 107.875 164.3125 C107.215 164.3125 106.555 164.3125 105.875 164.3125 C104.25 162.8125 104.25 162.8125 102.875 161.3125 C102.875 161.9725 102.875 162.6325 102.875 163.3125 C103.535 163.3125 104.195 163.3125 104.875 163.3125 C105.205 165.2925 105.535 167.2725 105.875 169.3125 C106.535 169.3125 107.195 169.3125 107.875 169.3125 C108.205 171.2925 108.535 173.2725 108.875 175.3125 C109.535 175.3125 110.195 175.3125 110.875 175.3125 C111.205 177.2925 111.535 179.2725 111.875 181.3125 C112.535 181.3125 113.195 181.3125 113.875 181.3125 C114.205 183.2925 114.535 185.2725 114.875 187.3125 C115.865 187.6425 116.855 187.9725 117.875 188.3125 C117.875 190.9525 117.875 193.5925 117.875 196.3125 C114.41 197.3025 114.41 197.3025 110.875 198.3125 C111.08125 199.09625 111.2875 199.88 111.5 200.6875 C111.685625 201.986875 111.685625 201.986875 111.875 203.3125 C111.215 203.9725 110.555 204.6325 109.875 205.3125 C106.9121669 204.91745559 104.49173759 203.71432371 101.875 202.3125 C101.875 201.6525 101.875 200.9925 101.875 200.3125 C101.318125 200.209375 100.76125 200.10625 100.1875 200 C97.3980899 199.17071592 95.2610936 197.96950944 92.875 196.3125 C92.875 195.6525 92.875 194.9925 92.875 194.3125 C91.8025 194.250625 90.73 194.18875 89.625 194.125 C84.54129383 193.5156828 80.16588093 191.51872668 75.51171875 189.46875 C72.84754861 188.25257911 72.84754861 188.25257911 69.875 187.3125 C69.875 186.6525 69.875 185.9925 69.875 185.3125 C69.153125 185.18875 68.43125 185.065 67.6875 184.9375 C64.91778106 184.3220069 62.4779646 183.42805626 59.875 182.3125 C59.875 181.6525 59.875 180.9925 59.875 180.3125 C58.225 180.3125 56.575 180.3125 54.875 180.3125 C54.545 179.3225 54.215 178.3325 53.875 177.3125 C51.88932292 177.34505208 49.90364583 177.37760417 47.91796875 177.41015625 C45.875 177.3125 45.875 177.3125 42.875 176.3125 C42.875 175.6525 42.875 174.9925 42.875 174.3125 C42.215 174.3125 41.555 174.3125 40.875 174.3125 C40.545 175.3025 40.215 176.2925 39.875 177.3125 C39.215 177.3125 38.555 177.3125 37.875 177.3125 C37.545 178.3025 37.215 179.2925 36.875 180.3125 C36.215 180.3125 35.555 180.3125 34.875 180.3125 C35.0296875 181.3953125 35.0296875 181.3953125 35.1875 182.5 C34.75033463 186.43448832 32.71120357 187.68382352 29.875 190.3125 C29.545 191.3025 29.215 192.2925 28.875 193.3125 C27.885 193.3125 26.895 193.3125 25.875 193.3125 C25.545 194.6325 25.215 195.9525 24.875 197.3125 C24.215 197.3125 23.555 197.3125 22.875 197.3125 C22.545 199.2925 22.215 201.2725 21.875 203.3125 C21.215 203.3125 20.555 203.3125 19.875 203.3125 C19.58625 204.075625 19.2975 204.83875 19 205.625 C17.875 208.3125 17.875 208.3125 15.875 211.3125 C15.215 211.3125 14.555 211.3125 13.875 211.3125 C13.545 212.6325 13.215 213.9525 12.875 215.3125 C12.215 215.3125 11.555 215.3125 10.875 215.3125 C10.545 217.2925 10.215 219.2725 9.875 221.3125 C9.215 221.3125 8.555 221.3125 7.875 221.3125 C7.545 222.3025 7.215 223.2925 6.875 224.3125 C5.885 224.3125 4.895 224.3125 3.875 224.3125 C3.875 225.3025 3.875 226.2925 3.875 227.3125 C3.215 227.3125 2.555 227.3125 1.875 227.3125 C1.545 228.3025 1.215 229.2925 0.875 230.3125 C0.215 230.3125 -0.445 230.3125 -1.125 230.3125 C-1.455 231.3025 -1.785 232.2925 -2.125 233.3125 C-2.785 233.3125 -3.445 233.3125 -4.125 233.3125 C-4.455 234.3025 -4.785 235.2925 -5.125 236.3125 C-8.13291911 238.35358797 -10.54695344 238.51128036 -14.125 238.3125 C-14.125 237.6525 -14.125 236.9925 -14.125 236.3125 C-17.755 236.3125 -21.385 236.3125 -25.125 236.3125 C-25.455 235.3225 -25.785 234.3325 -26.125 233.3125 C-27.115 232.9825 -28.105 232.6525 -29.125 232.3125 C-29.125 231.6525 -29.125 230.9925 -29.125 230.3125 C-29.785 230.3125 -30.445 230.3125 -31.125 230.3125 C-31.85101879 226.4004708 -32.25101747 222.69892525 -32.25439453 218.72192383 C-32.25754669 217.65093948 -32.26069885 216.57995514 -32.26394653 215.47651672 C-32.26091019 213.76530891 -32.26091019 213.76530891 -32.2578125 212.01953125 C-32.25876923 210.83654953 -32.25972595 209.65356781 -32.26071167 208.43473816 C-32.26139073 205.94094794 -32.25955557 203.44715594 -32.25537109 200.95336914 C-32.25000474 197.12837789 -32.25533272 193.3035033 -32.26171875 189.47851562 C-32.2610582 187.05468724 -32.25977752 184.63085893 -32.2578125 182.20703125 C-32.25983673 181.06015335 -32.26186096 179.91327545 -32.26394653 178.73164368 C-32.25921829 177.13935188 -32.25921829 177.13935188 -32.25439453 175.51489258 C-32.25359894 174.58034744 -32.25280334 173.64580231 -32.25198364 172.68293762 C-32.125 170.3125 -32.125 170.3125 -31.125 167.3125 C-30.465 167.3125 -29.805 167.3125 -29.125 167.3125 C-29.125 166.3225 -29.125 165.3325 -29.125 164.3125 C-29.785 164.3125 -30.445 164.3125 -31.125 164.3125 C-31.125 160.0225 -31.125 155.7325 -31.125 151.3125 C-37.065 150.3225 -37.065 150.3225 -43.125 149.3125 C-43.125 148.6525 -43.125 147.9925 -43.125 147.3125 C-45.435 146.9825 -47.745 146.6525 -50.125 146.3125 C-50.125 145.6525 -50.125 144.9925 -50.125 144.3125 C-52.765 143.9825 -55.405 143.6525 -58.125 143.3125 C-58.125 142.6525 -58.125 141.9925 -58.125 141.3125 C-61.095 140.9825 -64.065 140.6525 -67.125 140.3125 C-67.125 139.6525 -67.125 138.9925 -67.125 138.3125 C-68.1459375 138.1578125 -68.1459375 138.1578125 -69.1875 138 C-72.75415989 137.16524981 -75.78722194 135.81777246 -79.125 134.3125 C-79.125 133.6525 -79.125 132.9925 -79.125 132.3125 C-80.61 132.1578125 -80.61 132.1578125 -82.125 132 C-86.40797163 131.40441294 -90.12496371 129.92654973 -94.125 128.3125 C-94.125 127.6525 -94.125 126.9925 -94.125 126.3125 C-97.095 125.8175 -97.095 125.8175 -100.125 125.3125 C-100.125 124.6525 -100.125 123.9925 -100.125 123.3125 C-101.775 122.9825 -103.425 122.6525 -105.125 122.3125 C-105.125 121.6525 -105.125 120.9925 -105.125 120.3125 C-106.445 119.9825 -107.765 119.6525 -109.125 119.3125 C-109.125 118.6525 -109.125 117.9925 -109.125 117.3125 C-111.105 116.9825 -113.085 116.6525 -115.125 116.3125 C-115.125 115.6525 -115.125 114.9925 -115.125 114.3125 C-116.115 113.9825 -117.105 113.6525 -118.125 113.3125 C-118.125 112.6525 -118.125 111.9925 -118.125 111.3125 C-119.115 110.9825 -120.105 110.6525 -121.125 110.3125 C-121.125 109.6525 -121.125 108.9925 -121.125 108.3125 C-122.115 107.9825 -123.105 107.6525 -124.125 107.3125 C-124.125 106.6525 -124.125 105.9925 -124.125 105.3125 C-124.785 105.3125 -125.445 105.3125 -126.125 105.3125 C-126.455 104.3225 -126.785 103.3325 -127.125 102.3125 C-127.785 101.9825 -128.445 101.6525 -129.125 101.3125 C-129.9076087 92.35597826 -129.9076087 92.35597826 -127.0625 88.5625 C-126.093125 87.82 -125.12375 87.0775 -124.125 86.3125 C-123.59390625 85.80976562 -123.0628125 85.30703125 -122.515625 84.7890625 C-117.00215574 79.6043781 -111.73883164 77.16080172 -104.125 77.125 C-102.79104164 77.17231947 -101.45719796 77.22923763 -100.125 77.3125 C-100.125 76.6525 -100.125 75.9925 -100.125 75.3125 C-93.18694818 72.18357467 -86.68718722 71.64680401 -79.125 71.3125 C-79.125 70.3225 -79.125 69.3325 -79.125 68.3125 C-78.135 68.3125 -77.145 68.3125 -76.125 68.3125 C-76.125 67.6525 -76.125 66.9925 -76.125 66.3125 C-71.67 65.8175 -71.67 65.8175 -67.125 65.3125 C-67.125 64.6525 -67.125 63.9925 -67.125 63.3125 C-66.06539063 63.19132812 -65.00578125 63.07015625 -63.9140625 62.9453125 C-62.52598676 62.77649248 -61.13796881 62.60719692 -59.75 62.4375 C-59.05132812 62.35886719 -58.35265625 62.28023437 -57.6328125 62.19921875 C-53.43427841 61.76029555 -53.43427841 61.76029555 -50.125 59.3125 C-48.805 59.3125 -47.485 59.3125 -46.125 59.3125 C-46.125 58.6525 -46.125 57.9925 -46.125 57.3125 C-43.485 56.9825 -40.845 56.6525 -38.125 56.3125 C-38.125 55.6525 -38.125 54.9925 -38.125 54.3125 C-33.175 53.8175 -33.175 53.8175 -28.125 53.3125 C-28.125 52.6525 -28.125 51.9925 -28.125 51.3125 C-27.135 51.3125 -26.145 51.3125 -25.125 51.3125 C-25.125 47.3525 -25.125 43.3925 -25.125 39.3125 C-24.465 39.3125 -23.805 39.3125 -23.125 39.3125 C-23.13660156 38.55066406 -23.14820313 37.78882813 -23.16015625 37.00390625 C-23.21547294 30.67409678 -22.9615926 24.58694451 -22.125 18.3125 C-21.465 18.3125 -20.805 18.3125 -20.125 18.3125 C-19.795 16.9925 -19.465 15.6725 -19.125 14.3125 C-18.465 14.3125 -17.805 14.3125 -17.125 14.3125 C-16.795 12.6625 -16.465 11.0125 -16.125 9.3125 C-15.465 9.3125 -14.805 9.3125 -14.125 9.3125 C-14.0321875 8.19875 -14.0321875 8.19875 -13.9375 7.0625 C-11.90696868 0.18993244 -6.30709384 -0.25848745 0 0 Z M3.875 31.3125 C3.875 33.9525 3.875 36.5925 3.875 39.3125 C3.215 39.3125 2.555 39.3125 1.875 39.3125 C1.875 41.2925 1.875 43.2725 1.875 45.3125 C2.865 45.3125 3.855 45.3125 4.875 45.3125 C5.205 44.6525 5.535 43.9925 5.875 43.3125 C7.51863134 42.59090576 9.18550386 41.91898579 10.875 41.3125 C10.52713292 39.33713255 10.52713292 39.33713255 9.875 37.3125 C9.215 36.9825 8.555 36.6525 7.875 36.3125 C7.545 35.3225 7.215 34.3325 6.875 33.3125 C6.215 33.3125 5.555 33.3125 4.875 33.3125 C4.545 32.6525 4.215 31.9925 3.875 31.3125 Z M66.875 52.3125 C66.875 52.9725 66.875 53.6325 66.875 54.3125 C65.988125 54.27125 65.10125 54.23 64.1875 54.1875 C60.90222987 54.31147246 58.82050705 54.92637904 55.875 56.3125 C55.875 57.3025 55.875 58.2925 55.875 59.3125 C54.885 59.6425 53.895 59.9725 52.875 60.3125 C53.535 60.3125 54.195 60.3125 54.875 60.3125 C55.205 61.9625 55.535 63.6125 55.875 65.3125 C56.535 65.3125 57.195 65.3125 57.875 65.3125 C58.205 67.2925 58.535 69.2725 58.875 71.3125 C59.535 71.3125 60.195 71.3125 60.875 71.3125 C60.99875 71.910625 61.1225 72.50875 61.25 73.125 C61.82975985 75.57481348 61.82975985 75.57481348 63.875 78.3125 C64.25999891 79.96799531 64.60293135 81.6347433 64.875 83.3125 C65.535 83.3125 66.195 83.3125 66.875 83.3125 C66.875 84.3025 66.875 85.2925 66.875 86.3125 C67.535 86.3125 68.195 86.3125 68.875 86.3125 C69.54760351 84.54391309 70.21288395 82.77253984 70.875 81 C71.431875 79.52080078 71.431875 79.52080078 72 78.01171875 C73.02918502 75.30978344 73.02918502 75.30978344 72.875 72.3125 C73.865 71.9825 74.855 71.6525 75.875 71.3125 C75.875 70.3225 75.875 69.3325 75.875 68.3125 C76.535 68.3125 77.195 68.3125 77.875 68.3125 C78.205 66.6625 78.535 65.0125 78.875 63.3125 C79.535 63.3125 80.195 63.3125 80.875 63.3125 C81.5458712 61.6892313 82.21157029 60.06382422 82.875 58.4375 C83.24625 57.53257813 83.6175 56.62765625 84 55.6953125 C84.98990226 53.42266142 84.98990226 53.42266142 84.875 51.3125 C78.79906438 51.19998267 72.91054548 51.61989642 66.875 52.3125 Z M18.875 66.3125 C18.875 66.9725 18.875 67.6325 18.875 68.3125 C15.245 68.6425 11.615 68.9725 7.875 69.3125 C7.875 69.9725 7.875 70.6325 7.875 71.3125 C5.565 71.6425 3.255 71.9725 0.875 72.3125 C0.875 81.2225 0.875 90.1325 0.875 99.3125 C0.215 99.3125 -0.445 99.3125 -1.125 99.3125 C-1.29248075 103.97537681 -1.45305376 108.63842037 -1.60717773 113.30175781 C-1.66060756 114.88873729 -1.71593771 116.47565395 -1.77319336 118.0625 C-1.85507724 120.34100804 -1.93016524 122.61965322 -2.00390625 124.8984375 C-2.03094131 125.60994965 -2.05797638 126.32146179 -2.08583069 127.05453491 C-2.26958154 130.8063918 -2.26958154 130.8063918 -1.125 134.3125 C0.61811442 135.22131053 0.61811442 135.22131053 2.6875 135.9375 C3.37457031 136.19789063 4.06164062 136.45828125 4.76953125 136.7265625 C7.15301323 137.49123651 7.15301323 137.49123651 10.875 137.3125 C10.875 137.9725 10.875 138.6325 10.875 139.3125 C13.845 139.6425 16.815 139.9725 19.875 140.3125 C19.875 140.9725 19.875 141.6325 19.875 142.3125 C22.88502234 142.89304938 25.80389645 143.35606175 28.875 143.3125 C31.07387923 141.71580166 31.07387923 141.71580166 31.875 139.3125 C31.875 138.3225 31.875 137.3325 31.875 136.3125 C32.865 136.3125 33.855 136.3125 34.875 136.3125 C34.875 135.6525 34.875 134.9925 34.875 134.3125 C35.535 134.3125 36.195 134.3125 36.875 134.3125 C37.22111328 133.51585937 37.22111328 133.51585937 37.57421875 132.703125 C39.72825909 128.0374566 41.65169402 125.39437193 45.875 122.3125 C46.85108217 119.38425348 46.95726668 117.35636724 46.875 114.3125 C47.535 113.9825 48.195 113.6525 48.875 113.3125 C48.875 112.3225 48.875 111.3325 48.875 110.3125 C49.535 110.3125 50.195 110.3125 50.875 110.3125 C50.875 109.6525 50.875 108.9925 50.875 108.3125 C50.215 108.3125 49.555 108.3125 48.875 108.3125 C48.875 107.3225 48.875 106.3325 48.875 105.3125 C48.215 105.3125 47.555 105.3125 46.875 105.3125 C46.854375 104.36375 46.83375 103.415 46.8125 102.4375 C46.17479392 97.68369105 43.41710599 94.46773664 40.56640625 90.7421875 C38.88654413 88.32908302 37.85307992 86.07471565 36.875 83.3125 C35.885 83.3125 34.895 83.3125 33.875 83.3125 C33.75125 82.24 33.6275 81.1675 33.5 80.0625 C32.97856064 76.93386385 32.47411746 74.97769576 30.875 72.3125 C30.215 72.3125 29.555 72.3125 28.875 72.3125 C28.75125 71.69375 28.6275 71.075 28.5 70.4375 C28.00302644 68.12129168 28.00302644 68.12129168 25.875 66.3125 C22.29156024 66.14572718 22.29156024 66.14572718 18.875 66.3125 Z M49.875 66.3125 C50.875 68.3125 50.875 68.3125 50.875 68.3125 Z M-31.125 81.3125 C-31.125 81.9725 -31.125 82.6325 -31.125 83.3125 C-34.755 83.6425 -38.385 83.9725 -42.125 84.3125 C-42.125 84.9725 -42.125 85.6325 -42.125 86.3125 C-44.105 85.6525 -46.085 84.9925 -48.125 84.3125 C-48.125 84.9725 -48.125 85.6325 -48.125 86.3125 C-49.445 86.6425 -50.765 86.9725 -52.125 87.3125 C-52.125 87.9725 -52.125 88.6325 -52.125 89.3125 C-52.92164063 89.36148438 -53.71828125 89.41046875 -54.5390625 89.4609375 C-60.05004671 89.8497904 -64.93792792 90.28827675 -70.125 92.3125 C-71.053125 92.4775 -71.98125 92.6425 -72.9375 92.8125 C-73.659375 92.9775 -74.38125 93.1425 -75.125 93.3125 C-75.455 93.9725 -75.785 94.6325 -76.125 95.3125 C-77.95010997 96.09265621 -79.81106676 96.79045406 -81.6875 97.4375 C-82.69941406 97.79070312 -83.71132813 98.14390625 -84.75390625 98.5078125 C-85.53636719 98.77335937 -86.31882812 99.03890625 -87.125 99.3125 C-87.125 99.9725 -87.125 100.6325 -87.125 101.3125 C-85.475 101.6425 -83.825 101.9725 -82.125 102.3125 C-82.125 102.9725 -82.125 103.6325 -82.125 104.3125 C-79.815 104.6425 -77.505 104.9725 -75.125 105.3125 C-75.125 105.9725 -75.125 106.6325 -75.125 107.3125 C-73.145 107.6425 -71.165 107.9725 -69.125 108.3125 C-69.125 108.9725 -69.125 109.6325 -69.125 110.3125 C-67.145 110.6425 -65.165 110.9725 -63.125 111.3125 C-63.125 111.9725 -63.125 112.6325 -63.125 113.3125 C-61.145 113.6425 -59.165 113.9725 -57.125 114.3125 C-57.125 114.9725 -57.125 115.6325 -57.125 116.3125 C-55.145 116.6425 -53.165 116.9725 -51.125 117.3125 C-51.125 117.9725 -51.125 118.6325 -51.125 119.3125 C-48.155 119.6425 -45.185 119.9725 -42.125 120.3125 C-42.125 120.9725 -42.125 121.6325 -42.125 122.3125 C-40.990625 122.621875 -39.85625 122.93125 -38.6875 123.25 C-35.125 124.3125 -35.125 124.3125 -34.125 125.3125 C-31.45441149 125.45365161 -28.80067762 125.35497107 -26.125 125.3125 C-27.115 117.8875 -27.115 117.8875 -28.125 110.3125 C-27.465 110.3125 -26.805 110.3125 -26.125 110.3125 C-25.9573954 106.04170293 -25.79107641 101.77085675 -25.625 97.5 C-25.57730469 96.28505859 -25.52960938 95.07011719 -25.48046875 93.81835938 C-25.43535156 92.65498047 -25.39023437 91.49160156 -25.34375 90.29296875 C-25.2809082 88.68264771 -25.2809082 88.68264771 -25.21679688 87.03979492 C-25.15256746 85.13153204 -25.125 83.22184351 -25.125 81.3125 C-27.105 81.3125 -29.085 81.3125 -31.125 81.3125 Z M61.875 87.3125 C62.875 89.3125 62.875 89.3125 62.875 89.3125 Z M78.875 117.3125 C79.205 118.9625 79.535 120.6125 79.875 122.3125 C80.535 122.3125 81.195 122.3125 81.875 122.3125 C81.545 120.6625 81.215 119.0125 80.875 117.3125 C80.215 117.3125 79.555 117.3125 78.875 117.3125 Z M81.875 123.3125 C82.205 124.3025 82.535 125.2925 82.875 126.3125 C83.205 125.3225 83.535 124.3325 83.875 123.3125 C83.215 123.3125 82.555 123.3125 81.875 123.3125 Z M85.875 129.3125 C86.875 132.3125 86.875 132.3125 86.875 132.3125 Z M88.875 134.3125 C88.875 135.9625 88.875 137.6125 88.875 139.3125 C89.535 139.3125 90.195 139.3125 90.875 139.3125 C90.545 137.6625 90.215 136.0125 89.875 134.3125 C89.545 134.3125 89.215 134.3125 88.875 134.3125 Z M65.4375 138.5625 C61.81821866 142.3628863 61.81821866 142.3628863 60.875 147.3125 C60.215 147.3125 59.555 147.3125 58.875 147.3125 C58.545 148.9625 58.215 150.6125 57.875 152.3125 C56.885 152.6425 55.895 152.9725 54.875 153.3125 C54.875 153.6425 54.875 153.9725 54.875 154.3125 C58.175 154.6425 61.475 154.9725 64.875 155.3125 C64.875 155.9725 64.875 156.6325 64.875 157.3125 C65.865 157.3125 66.855 157.3125 67.875 157.3125 C67.875 158.3025 67.875 159.2925 67.875 160.3125 C71.505 160.6425 75.135 160.9725 78.875 161.3125 C78.875 159.6625 78.875 158.0125 78.875 156.3125 C77.885 156.3125 76.895 156.3125 75.875 156.3125 C75.545 154.0025 75.215 151.6925 74.875 149.3125 C74.215 149.3125 73.555 149.3125 72.875 149.3125 C72.545 147.6625 72.215 146.0125 71.875 144.3125 C71.215 144.3125 70.555 144.3125 69.875 144.3125 C69.545 142.0025 69.215 139.6925 68.875 137.3125 C66.80904037 137.09377376 66.80904037 137.09377376 65.4375 138.5625 Z M91.875 140.3125 C92.875 143.3125 92.875 143.3125 92.875 143.3125 Z M94.875 146.3125 C94.875 147.3025 94.875 148.2925 94.875 149.3125 C95.535 149.3125 96.195 149.3125 96.875 149.3125 C96.545 148.3225 96.215 147.3325 95.875 146.3125 C95.545 146.3125 95.215 146.3125 94.875 146.3125 Z M96.875 149.3125 C96.875 150.3025 96.875 151.2925 96.875 152.3125 C97.535 152.3125 98.195 152.3125 98.875 152.3125 C98.875 151.3225 98.875 150.3325 98.875 149.3125 C98.215 149.3125 97.555 149.3125 96.875 149.3125 Z M98.875 152.3125 C99.875 154.3125 99.875 154.3125 99.875 154.3125 Z M99.875 155.3125 C99.875 155.9725 99.875 156.6325 99.875 157.3125 C100.535 157.3125 101.195 157.3125 101.875 157.3125 C101.875 156.6525 101.875 155.9925 101.875 155.3125 C101.215 155.3125 100.555 155.3125 99.875 155.3125 Z M101.875 158.3125 C102.875 160.3125 102.875 160.3125 102.875 160.3125 Z M78.875 161.3125 C78.875 161.9725 78.875 162.6325 78.875 163.3125 C79.535 163.3125 80.195 163.3125 80.875 163.3125 C80.875 162.6525 80.875 161.9925 80.875 161.3125 C80.215 161.3125 79.555 161.3125 78.875 161.3125 Z M-4.125 162.3125 C-4.125 171.5525 -4.125 180.7925 -4.125 190.3125 C-3.465 190.3125 -2.805 190.3125 -2.125 190.3125 C-1.795 188.6625 -1.465 187.0125 -1.125 185.3125 C-0.465 185.3125 0.195 185.3125 0.875 185.3125 C0.875 184.3225 0.875 183.3325 0.875 182.3125 C1.865 182.3125 2.855 182.3125 3.875 182.3125 C5.39948631 179.3298094 6.81440067 176.494298 7.875 173.3125 C9.8125 172.25 9.8125 172.25 11.875 171.3125 C12.535 170.6525 13.195 169.9925 13.875 169.3125 C13.875 167.9925 13.875 166.6725 13.875 165.3125 C12.905625 165.18875 11.93625 165.065 10.9375 164.9375 C9.926875 164.73125 8.91625 164.525 7.875 164.3125 C7.545 163.6525 7.215 162.9925 6.875 162.3125 C4.81943781 161.80664302 4.81943781 161.80664302 2.4375 161.625 C1.63441406 161.53863281 0.83132813 161.45226562 0.00390625 161.36328125 C-2.18012314 161.14488852 -2.18012314 161.14488852 -4.125 162.3125 Z M94.875 170.3125 C95.875 172.3125 95.875 172.3125 95.875 172.3125 Z " fill="#FDDB93" transform="translate(366.125,28.6875)"/>
<path d="M0 0 C0 0.66 0 1.32 0 2 C2.31 2.33 4.62 2.66 7 3 C7 3.66 7 4.32 7 5 C8.98 5.33 10.96 5.66 13 6 C13 6.66 13 7.32 13 8 C14.65 8.33 16.3 8.66 18 9 C18 9.66 18 10.32 18 11 C19.98 11.33 21.96 11.66 24 12 C24 12.66 24 13.32 24 14 C24.7425 14.061875 25.485 14.12375 26.25 14.1875 C29.83007591 15.2452497 30.80146992 17.06862656 33 20 C33.99 20.33 34.98 20.66 36 21 C36 21.66 36 22.32 36 23 C36.99 23.33 37.98 23.66 39 24 C39 24.66 39 25.32 39 26 C39.99 26.33 40.98 26.66 42 27 C42 27.66 42 28.32 42 29 C42.556875 29.061875 43.11375 29.12375 43.6875 29.1875 C49.06702264 31.07760255 53.64657553 37.42505321 57 42 C57 42.66 57 43.32 57 44 C57.99 44.33 58.98 44.66 60 45 C60 45.66 60 46.32 60 47 C60.99 47.33 61.98 47.66 63 48 C66 53.22222222 66 53.22222222 66 56 C66.99 56.33 67.98 56.66 69 57 C69 57.99 69 58.98 69 60 C69.66 60 70.32 60 71 60 C71.33 61.65 71.66 63.3 72 65 C72.66 65 73.32 65 74 65 C74.33 66.98 74.66 68.96 75 71 C75.66 71 76.32 71 77 71 C77.33 73.64 77.66 76.28 78 79 C78.99 79.33 79.98 79.66 81 80 C81 80.99 81 81.98 81 83 C81.66 83 82.32 83 83 83 C82.814375 83.556875 82.62875 84.11375 82.4375 84.6875 C81.92448835 87.399133 82.3359276 89.34371039 83 92 C83.99 92 84.98 92 86 92 C86.33 94.97 86.66 97.94 87 101 C87.66 101 88.32 101 89 101 C90.22517308 106.66642551 90.09228867 112.23708518 90 118 C90.66 118 91.32 118 92 118 C93.05305087 123.16956997 93.14530946 128.13021608 93.1328125 133.37890625 C93.13424759 134.71344093 93.13424759 134.71344093 93.13571167 136.07493591 C93.13638971 137.94831412 93.13456173 139.82169472 93.13037109 141.69506836 C93.12501118 144.55653163 93.13033211 147.41783841 93.13671875 150.27929688 C93.13605803 152.10416701 93.13477698 153.92903705 93.1328125 155.75390625 C93.13483673 156.60610245 93.13686096 157.45829865 93.13894653 158.33631897 C93.12312782 162.35657177 93.0035838 166.07685438 92 170 C91.34 170 90.68 170 90 170 C90.04640625 170.72703125 90.0928125 171.4540625 90.140625 172.203125 C90.42875778 180.22968111 88.95490308 186.55997618 86 194 C85.34 194 84.68 194 84 194 C83.896875 195.010625 83.79375 196.02125 83.6875 197.0625 C82.96295233 201.21218208 81.77730734 204.21356263 80 208 C79.34 208 78.68 208 78 208 C77.896875 208.721875 77.79375 209.44375 77.6875 210.1875 C76.93206053 213.27793421 75.84468685 215.41743841 74 218 C73.34 218 72.68 218 72 218 C71.67 219.65 71.34 221.3 71 223 C70.34 223 69.68 223 69 223 C68.67 224.32 68.34 225.64 68 227 C67.34 227 66.68 227 66 227 C65.7525 227.7425 65.505 228.485 65.25 229.25 C63.90095207 232.21790544 62.31949313 233.75532923 60 236 C59.67 236.99 59.34 237.98 59 239 C58.34 239 57.68 239 57 239 C56.67 239.99 56.34 240.98 56 242 C55.34 242 54.68 242 54 242 C53.67 242.99 53.34 243.98 53 245 C52.34 245 51.68 245 51 245 C50.67 245.99 50.34 246.98 50 248 C49.34 248 48.68 248 48 248 C47.67 248.99 47.34 249.98 47 251 C46.34 251 45.68 251 45 251 C44.67 251.99 44.34 252.98 44 254 C43.34 254 42.68 254 42 254 C42 254.66 42 255.32 42 256 C41.01 256.33 40.02 256.66 39 257 C38.071875 258.2375 38.071875 258.2375 37.125 259.5 C34.72864403 262.31924232 33.6032236 262.69973137 30 263 C29.67 263.99 29.34 264.98 29 266 C27.35 266 25.7 266 24 266 C24 266.66 24 267.32 24 268 C23 269.5625 23 269.5625 21 271 C18.3212381 271.56005673 15.73839339 271.77554153 13 272 C13 272.66 13 273.32 13 274 C12.01 274.33 11.02 274.66 10 275 C9.67 275.66 9.34 276.32 9 277 C6.93359375 277.4140625 6.93359375 277.4140625 4.4375 277.625 C3.19806641 277.73714844 3.19806641 277.73714844 1.93359375 277.8515625 C1.29550781 277.90054687 0.65742188 277.94953125 0 278 C0 278.99 0 279.98 0 281 C-1.258125 280.938125 -2.51625 280.87625 -3.8125 280.8125 C-7.11608878 280.72774237 -7.11608878 280.72774237 -9.8125 282.5 C-10.204375 282.995 -10.59625 283.49 -11 284 C-11.99 284 -12.98 284 -14 284 C-14 284.66 -14 285.32 -14 286 C-20.06696699 286.77040851 -25.88514973 287.09706112 -32 287 C-32 287.66 -32 288.32 -32 289 C-44.21 289 -56.42 289 -69 289 C-69 288.34 -69 287.68 -69 287 C-70.7634375 287.0309375 -70.7634375 287.0309375 -72.5625 287.0625 C-76.47413467 287.06947261 -80.14497944 286.64250343 -84 286 C-84 285.34 -84 284.68 -84 284 C-85.65 284 -87.3 284 -89 284 C-89.495 282.515 -89.495 282.515 -90 281 C-90.78246094 280.95101563 -91.56492187 280.90203125 -92.37109375 280.8515625 C-93.38300781 280.77679688 -94.39492187 280.70203125 -95.4375 280.625 C-96.44683594 280.55539062 -97.45617187 280.48578125 -98.49609375 280.4140625 C-99.32238281 280.27742188 -100.14867188 280.14078125 -101 280 C-101.33 279.34 -101.66 278.68 -102 278 C-102.825 277.835 -103.65 277.67 -104.5 277.5 C-105.325 277.335 -106.15 277.17 -107 277 C-107.33 276.34 -107.66 275.68 -108 275 C-108.99 274.67 -109.98 274.34 -111 274 C-111 273.34 -111 272.68 -111 272 C-113.64 271.67 -116.28 271.34 -119 271 C-119 270.34 -119 269.68 -119 269 C-120.32 268.67 -121.64 268.34 -123 268 C-123 267.34 -123 266.68 -123 266 C-124.65 266 -126.3 266 -128 266 C-128.495 264.515 -128.495 264.515 -129 263 C-129.99 262.67 -130.98 262.34 -132 262 C-132 261.34 -132 260.68 -132 260 C-132.804375 259.87625 -133.60875 259.7525 -134.4375 259.625 C-135.7059375 259.315625 -135.7059375 259.315625 -137 259 C-137.33 258.34 -137.66 257.68 -138 257 C-138.99 256.67 -139.98 256.34 -141 256 C-142.6875 252.9375 -142.6875 252.9375 -144 250 C-144.99 250 -145.98 250 -147 250 C-147 249.34 -147 248.68 -147 248 C-147.99 247.67 -148.98 247.34 -150 247 C-150 246.34 -150 245.68 -150 245 C-150.99 244.67 -151.98 244.34 -153 244 C-153 243.34 -153 242.68 -153 242 C-153.99 241.67 -154.98 241.34 -156 241 C-156 240.34 -156 239.68 -156 239 C-156.66 239 -157.32 239 -158 239 C-158.0825 238.05125 -158.165 237.1025 -158.25 236.125 C-158.65074923 232.89538209 -158.65074923 232.89538209 -161.0625 231.625 C-161.701875 231.41875 -162.34125 231.2125 -163 231 C-163 230.34 -163 229.68 -163 229 C-164.32 228.34 -165.64 227.68 -167 227 C-167 226.01 -167 225.02 -167 224 C-167.99 223.67 -168.98 223.34 -170 223 C-171.88579937 219.78715662 -173 217.75366417 -173 214 C-173.66 214 -174.32 214 -175 214 C-175.18175781 212.93458984 -175.18175781 212.93458984 -175.3671875 211.84765625 C-175.53476563 210.92855469 -175.70234375 210.00945312 -175.875 209.0625 C-176.03742188 208.14597656 -176.19984375 207.22945312 -176.3671875 206.28515625 C-176.57601562 205.53105469 -176.78484375 204.77695312 -177 204 C-177.66 203.67 -178.32 203.34 -179 203 C-179 202.01 -179 201.02 -179 200 C-179.66 200 -180.32 200 -181 200 C-181.33 197.03 -181.66 194.06 -182 191 C-182.66 191 -183.32 191 -184 191 C-184 183.74 -184 176.48 -184 169 C-183.34 169 -182.68 169 -182 169 C-181.938125 168.01 -181.87625 167.02 -181.8125 166 C-181.09997061 161.35430841 -179.49926516 157.23640957 -176 154 C-171.75267742 152.97170085 -168.09000271 153.63666576 -164 155 C-164 155.66 -164 156.32 -164 157 C-162.02 157.33 -160.04 157.66 -158 158 C-158 158.66 -158 159.32 -158 160 C-156.02 160.33 -154.04 160.66 -152 161 C-152 161.66 -152 162.32 -152 163 C-150.824375 163.12375 -149.64875 163.2475 -148.4375 163.375 C-144.48215225 163.86331454 -140.8235557 164.86709461 -137 166 C-135.00511766 166.36270588 -133.0062189 166.70640699 -131 167 C-131 167.66 -131 168.32 -131 169 C-121.43 169 -111.86 169 -102 169 C-102 168.34 -102 167.68 -102 167 C-98.04 166.67 -94.08 166.34 -90 166 C-90 165.34 -90 164.68 -90 164 C-89.33613281 163.87882813 -88.67226562 163.75765625 -87.98828125 163.6328125 C-81.29875052 162.4456026 -81.29875052 162.4456026 -75 160 C-74.67 159.34 -74.34 158.68 -74 158 C-71.4375 157.375 -71.4375 157.375 -69 157 C-69 156.34 -69 155.68 -69 155 C-67.02 154.67 -65.04 154.34 -63 154 C-63 153.34 -63 152.68 -63 152 C-61.02 151.67 -59.04 151.34 -57 151 C-57 150.01 -57 149.02 -57 148 C-56.01 148 -55.02 148 -54 148 C-54 147.34 -54 146.68 -54 146 C-53.01 145.67 -52.02 145.34 -51 145 C-49.62517293 143.36739286 -48.29352333 141.69774938 -47 140 C-45.375 138.1875 -45.375 138.1875 -44 137 C-43.34 137 -42.68 137 -42 137 C-41.67 135.68 -41.34 134.36 -41 133 C-40.34 133 -39.68 133 -39 133 C-38.67 131.02 -38.34 129.04 -38 127 C-37.34 127 -36.68 127 -36 127 C-35.67 125.35 -35.34 123.7 -35 122 C-34.34 122 -33.68 122 -33 122 C-33 121.01 -33 120.02 -33 119 C-32.34 119 -31.68 119 -31 119 C-30.67 117.02 -30.34 115.04 -30 113 C-29.34 113 -28.68 113 -28 113 C-27.67 111.02 -27.34 109.04 -27 107 C-26.34 107 -25.68 107 -25 107 C-24.93941406 106.07316406 -24.87882813 105.14632812 -24.81640625 104.19140625 C-24.73261719 102.99386719 -24.64882812 101.79632813 -24.5625 100.5625 C-24.44068359 98.77005859 -24.44068359 98.77005859 -24.31640625 96.94140625 C-24 94 -24 94 -23 93 C-19.60834754 77.13357104 -21.91366888 62.44292637 -26 47 C-26.33 46.67 -26.66 46.34 -27 46 C-27.23427778 43.98405418 -27.41336124 41.961526 -27.5625 39.9375 C-27.64628906 38.83277344 -27.73007813 37.72804687 -27.81640625 36.58984375 C-27.87699219 35.73519531 -27.93757812 34.88054687 -28 34 C-28.66 34 -29.32 34 -30 34 C-30.33 31.69 -30.66 29.38 -31 27 C-31.66 27 -32.32 27 -33 27 C-33 23.04 -33 19.08 -33 15 C-32.34 15 -31.68 15 -31 15 C-31 12.03 -31 9.06 -31 6 C-30.01 5.67 -29.02 5.34 -28 5 C-27.67 4.01 -27.34 3.02 -27 2 C-26.34 2 -25.68 2 -25 2 C-25 1.34 -25 0.68 -25 0 C-17.28583967 -2.57138678 -7.94952344 -1.07790148 0 0 Z M-6 24 C-5.67 25.98 -5.34 27.96 -5 30 C-4.34 30 -3.68 30 -3 30 C-2.67 31.98 -2.34 33.96 -2 36 C-1.34 36 -0.68 36 0 36 C-0.020625 37.2375 -0.04125 38.475 -0.0625 39.75 C-0.06766681 42.6640825 0.06984442 45.20953327 1 48 C1.66 48 2.32 48 3 48 C3.33 65.49 3.66 82.98 4 101 C3.01 101 2.02 101 1 101 C0.67 105.29 0.34 109.58 0 114 C-0.66 114 -1.32 114 -2 114 C-2.33 116.97 -2.66 119.94 -3 123 C-3.66 123 -4.32 123 -5 123 C-5 125.64 -5 128.28 -5 131 C-7.97 131.495 -7.97 131.495 -11 132 C-11.061875 132.7425 -11.12375 133.485 -11.1875 134.25 C-12.24459193 137.82784961 -14.13728925 138.7098314 -17 141 C-17.87943404 143.63460948 -17.87943404 143.63460948 -18 146 C-18.66 146 -19.32 146 -20 146 C-20.33 146.99 -20.66 147.98 -21 149 C-21.515625 149.495 -22.03125 149.99 -22.5625 150.5 C-24.34595268 152.01472806 -24.34595268 152.01472806 -24 155 C-24.99 155.33 -25.98 155.66 -27 156 C-27 156.66 -27 157.32 -27 158 C-27.99 158.33 -28.98 158.66 -30 159 C-30 159.66 -30 160.32 -30 161 C-30.66 161 -31.32 161 -32 161 C-32 161.66 -32 162.32 -32 163 C-33.32 163.33 -34.64 163.66 -36 164 C-36 164.66 -36 165.32 -36 166 C-38.05290548 167.02645274 -40.09975903 168.04560413 -42.1875 169 C-44.17201523 169.87144569 -44.17201523 169.87144569 -45 172 C-45.99 172.33 -46.98 172.66 -48 173 C-48 173.66 -48 174.32 -48 175 C-49.65 175.33 -51.3 175.66 -53 176 C-53 176.66 -53 177.32 -53 178 C-53.53625 178.12375 -54.0725 178.2475 -54.625 178.375 C-59.94514217 179.47981742 -59.94514217 179.47981742 -64.234375 182.43359375 C-66.89250487 184.79180188 -69.78327594 185.28178901 -73.1875 186.1875 C-74.45980469 186.53167969 -75.73210937 186.87585938 -77.04296875 187.23046875 C-78.01878906 187.48441406 -78.99460937 187.73835937 -80 188 C-80 188.66 -80 189.32 -80 190 C-80.63808594 190.06058594 -81.27617188 190.12117187 -81.93359375 190.18359375 C-82.75988281 190.26738281 -83.58617188 190.35117187 -84.4375 190.4375 C-85.26121094 190.51871094 -86.08492188 190.59992188 -86.93359375 190.68359375 C-88.98662025 190.78930815 -88.98662025 190.78930815 -90 192 C-92.52805208 192.25063919 -95.02715292 192.43131947 -97.5625 192.5625 C-98.34955322 192.6042334 -99.13660645 192.6459668 -99.94750977 192.68896484 C-106.77662269 193.01199461 -113.60135496 193.10738795 -120.4375 193.125 C-121.90908569 193.13188843 -121.90908569 193.13188843 -123.41040039 193.13891602 C-141.87753217 193.10002474 -141.87753217 193.10002474 -150.125 188.83984375 C-152.11389947 187.79560854 -152.11389947 187.79560854 -155 188 C-154.67 190.64 -154.34 193.28 -154 196 C-153.34 196 -152.68 196 -152 196 C-151.67 197.98 -151.34 199.96 -151 202 C-150.34 202 -149.68 202 -149 202 C-148.67 203.32 -148.34 204.64 -148 206 C-147.34 206 -146.68 206 -146 206 C-145.505 208.475 -145.505 208.475 -145 211 C-144.34 211 -143.68 211 -143 211 C-142.67 212.32 -142.34 213.64 -142 215 C-141.34 215 -140.68 215 -140 215 C-139.67 217.64 -139.34 220.28 -139 223 C-137.35 223.33 -135.7 223.66 -134 224 C-133.67 224.99 -133.34 225.98 -133 227 C-132.34 227 -131.68 227 -131 227 C-130.67 227.99 -130.34 228.98 -130 230 C-129.34 230 -128.68 230 -128 230 C-128 230.99 -128 231.98 -128 233 C-125.46815512 235.35723489 -124.52809907 236 -121 236 C-121 236.66 -121 237.32 -121 238 C-120.34 238.33 -119.68 238.66 -119 239 C-118.375 241.0625 -118.375 241.0625 -118 243 C-116.2984375 243.185625 -116.2984375 243.185625 -114.5625 243.375 C-113.386875 243.58125 -112.21125 243.7875 -111 244 C-110.67 244.66 -110.34 245.32 -110 246 C-106.97065509 246.65772428 -106.97065509 246.65772428 -104 247 C-104 247.66 -104 248.32 -104 249 C-101.87767021 250.17176518 -99.75242209 251.33754785 -97.625 252.5 C-96.72007813 253.00080078 -96.72007813 253.00080078 -95.796875 253.51171875 C-92.58585223 255.38773938 -92.58585223 255.38773938 -89 256 C-89 256.66 -89 257.32 -89 258 C-88.14277344 258.12117187 -87.28554687 258.24234375 -86.40234375 258.3671875 C-76.68273867 259.79170685 -76.68273867 259.79170685 -72.3125 261.125 C-67.84213863 262.30585017 -63.5955229 262.16643745 -59 262 C-59 262.66 -59 263.32 -59 264 C-54.05 264.33 -49.1 264.66 -44 265 C-44 264.01 -44 263.02 -44 262 C-43.40985107 262.00523682 -42.81970215 262.01047363 -42.21166992 262.01586914 C-39.53695745 262.03666047 -36.86226199 262.04966701 -34.1875 262.0625 C-32.7943457 262.07506836 -32.7943457 262.07506836 -31.37304688 262.08789062 C-30.48037109 262.09111328 -29.58769531 262.09433594 -28.66796875 262.09765625 C-27.84578857 262.10289307 -27.0236084 262.10812988 -26.17651367 262.11352539 C-23.81827404 262.08741524 -23.81827404 262.08741524 -21 261 C-21 260.34 -21 259.68 -21 259 C-20.38511719 259.03480469 -19.77023438 259.06960938 -19.13671875 259.10546875 C-17.92435547 259.14607422 -17.92435547 259.14607422 -16.6875 259.1875 C-15.88699219 259.22230469 -15.08648437 259.25710938 -14.26171875 259.29296875 C-11.47254598 258.93167694 -10.83776076 258.04367233 -9 256 C-8.01 255.67 -7.02 255.34 -6 255 C-6 254.34 -6 253.68 -6 253 C-3.36 252.67 -0.72 252.34 2 252 C2 251.34 2 250.68 2 250 C2.9075 249.938125 3.815 249.87625 4.75 249.8125 C8.77853569 248.80536608 9.61900194 247.28413526 12 244 C12.99 243.67 13.98 243.34 15 243 C15 242.34 15 241.68 15 241 C15.66 241 16.32 241 17 241 C17.33 240.34 17.66 239.68 18 239 C18.99 238.67 19.98 238.34 21 238 C21 237.34 21 236.68 21 236 C23.05290548 234.97354726 25.09975903 233.95439587 27.1875 233 C29.17201523 232.12855431 29.17201523 232.12855431 30 230 C30.99 229.67 31.98 229.34 33 229 C33 228.34 33 227.68 33 227 C33.66 227 34.32 227 35 227 C35.33 226.01 35.66 225.02 36 224 C37.65788785 222.65576661 39.32576317 221.32381517 41 220 C41.66 219.175 42.32 218.35 43 217.5 C45 215 45 215 47.4375 213.3125 C51.67746884 209.48618665 54.39205407 204.04437048 55.51171875 198.4375 C56.15327382 195.23485709 57.5848759 192.7958636 59.16015625 189.96484375 C60.2620244 187.74311945 60.2620244 187.74311945 60 184 C60.66 184 61.32 184 62 184 C62.12117187 183.33613281 62.24234375 182.67226563 62.3671875 181.98828125 C63.78214826 174.53252648 63.78214826 174.53252648 65.125 171.25 C66.22703141 168.41620494 66.14010149 166.01218208 66 163 C66.66 163 67.32 163 68 163 C67.814375 161.865625 67.62875 160.73125 67.4375 159.5625 C67.2209375 157.7990625 67.2209375 157.7990625 67 156 C67.33 155.67 67.66 155.34 68 155 C68.08713831 153.29227642 68.10700007 151.58101351 68.09765625 149.87109375 C68.09443359 148.83662109 68.09121094 147.80214844 68.08789062 146.73632812 C68.07951172 145.64771484 68.07113281 144.55910156 68.0625 143.4375 C68.05573242 141.7987793 68.05573242 141.7987793 68.04882812 140.12695312 C68.03699826 137.41791505 68.02051543 134.70898401 68 132 C67.34 132 66.68 132 66 132 C66 128.37 66 124.74 66 121 C66.66 120.67 67.32 120.34 68 120 C67.34 120 66.68 120 66 120 C65.67 118.02 65.34 116.04 65 114 C64.34 114 63.68 114 63 114 C63.01740234 113.02160156 63.01740234 113.02160156 63.03515625 112.0234375 C63.08470994 107.2238086 62.99413751 102.72215315 62 98 C61.34 98 60.68 98 60 98 C57.9614035 93.94417712 56.00642059 89.85185079 54.0625 85.75 C53.71509766 85.02425781 53.36769531 84.29851562 53.00976562 83.55078125 C51.3086805 79.95639799 49.75143457 76.39411038 48.43359375 72.640625 C47.15021644 69.38147608 46.57132152 68.13097913 44 66 C43.34 66 42.68 66 42 66 C41.896875 65.443125 41.79375 64.88625 41.6875 64.3125 C40.45097256 60.15327135 38.95894342 57.62186862 35.27734375 55.234375 C31.62067272 52.74138831 28.78701994 49.93963401 25.75 46.75 C23.87061261 44.77893517 21.97438965 42.87980811 20 41 C19.34 41 18.68 41 18 41 C17.67 40.01 17.34 39.02 17 38 C16.01 38 15.02 38 14 38 C13.5978125 37.0409375 13.5978125 37.0409375 13.1875 36.0625 C12.11332248 33.66868314 12.11332248 33.66868314 9 33 C9 32.34 9 31.68 9 31 C7.56570999 30.32645501 6.12742943 29.66140299 4.6875 29 C3.88699219 28.62875 3.08648437 28.2575 2.26171875 27.875 C-0.06213959 26.81959333 -0.06213959 26.81959333 -3 27 C-3.33 26.01 -3.66 25.02 -4 24 C-4.66 24 -5.32 24 -6 24 Z M-23 31 C-22 33 -22 33 -22 33 Z M-20 41 C-19 44 -19 44 -19 44 Z M-20 102 C-20 103.65 -20 105.3 -20 107 C-19.67 107 -19.34 107 -19 107 C-19 105.35 -19 103.7 -19 102 C-19.33 102 -19.66 102 -20 102 Z M-23 110 C-23 111.65 -23 113.3 -23 115 C-22.67 115 -22.34 115 -22 115 C-22 113.35 -22 111.7 -22 110 C-22.33 110 -22.66 110 -23 110 Z M-26 119 C-25 121 -25 121 -25 121 Z M-106 173 C-105.34 173.66 -104.68 174.32 -104 175 C-103.67 174.34 -103.34 173.68 -103 173 C-103.99 173 -104.98 173 -106 173 Z " fill="#FDDB93" transform="translate(195,175)"/>
<path d="M0 0 C0 0.66 0 1.32 0 2 C2.97 2.33 5.94 2.66 9 3 C9.33 4.65 9.66 6.3 10 8 C11.65 8.33 13.3 8.66 15 9 C15 9.66 15 10.32 15 11 C16.98 11.495 16.98 11.495 19 12 C19 12.99 19 13.98 19 15 C19.66 15 20.32 15 21 15 C21 16.65 21 18.3 21 20 C21.99 20 22.98 20 24 20 C24 21.98 24 23.96 24 26 C24.66 26 25.32 26 26 26 C30.1241841 36.43514489 30.1241841 36.43514489 30.625 41.5 C30.73859137 45.10936483 30.73859137 45.10936483 33 48 C33.22705078 49.99291992 33.22705078 49.99291992 33.1953125 52.23046875 C33.18564453 53.43413086 33.18564453 53.43413086 33.17578125 54.66210938 C33.15064453 55.91217773 33.15064453 55.91217773 33.125 57.1875 C33.11597656 58.03248047 33.10695313 58.87746094 33.09765625 59.74804688 C33.07410703 61.83215243 33.03823647 63.91611217 33 66 C33.66 66 34.32 66 35 66 C35.02886537 70.31248609 35.04675255 74.62494762 35.0625 78.9375 C35.07087891 80.16919922 35.07925781 81.40089844 35.08789062 82.66992188 C35.09111328 83.83974609 35.09433594 85.00957031 35.09765625 86.21484375 C35.10289307 87.29886475 35.10812988 88.38288574 35.11352539 89.49975586 C35 92 35 92 34 93 C33.60430892 95.01311449 33.25747809 97.03597208 32.9375 99.0625 C32.76089844 100.16722656 32.58429688 101.27195312 32.40234375 102.41015625 C32.26957031 103.26480469 32.13679687 104.11945313 32 105 C31.01 105 30.02 105 29 105 C29 90.15 29 75.3 29 60 C28.34 60 27.68 60 27 60 C27.00523682 60.92224365 27.01047363 61.8444873 27.01586914 62.79467773 C27.03303372 66.25562175 27.04550942 69.71651972 27.05493164 73.17749023 C27.05992328 74.66805745 27.06671894 76.15861986 27.07543945 77.64916992 C27.15367513 91.37722981 25.98868834 103.07476204 21 116 C20.34 116 19.68 116 19 116 C18.67 118.31 18.34 120.62 18 123 C17.34 123 16.68 123 16 123 C15.938125 124.258125 15.87625 125.51625 15.8125 126.8125 C15.33536192 130.72641528 15.33536192 130.72641528 12.625 132.9375 C10.77382403 133.68678551 8.89458521 134.3684716 7 135 C8.485 135.99 8.485 135.99 10 137 C10.66 136.01 11.32 135.02 12 134 C12.99 134 13.98 134 15 134 C15 134.66 15 135.32 15 136 C15.99 136 16.98 136 18 136 C18 137.32 18 138.64 18 140 C13.88888889 144 13.88888889 144 10 144 C10 144.66 10 145.32 10 146 C4.63904667 147.12862175 -0.55306686 147.09688221 -6 147 C-6 147.66 -6 148.32 -6 149 C-7.32 149 -8.64 149 -10 149 C-10 148.34 -10 147.68 -10 147 C-11.2375 147.020625 -12.475 147.04125 -13.75 147.0625 C-16.6640825 147.06766681 -19.20953327 146.93015558 -22 146 C-22 145.34 -22 144.68 -22 144 C-23.6396875 144.0309375 -23.6396875 144.0309375 -25.3125 144.0625 C-29 144 -29 144 -32 143 C-32 142.34 -32 141.68 -32 141 C-33.98 140.67 -35.96 140.34 -38 140 C-38 139.34 -38 138.68 -38 138 C-39.32 137.67 -40.64 137.34 -42 137 C-42 136.34 -42 135.68 -42 135 C-42.54140625 134.89816406 -43.0828125 134.79632813 -43.640625 134.69140625 C-46.60596581 133.82242393 -49.05524946 132.44527709 -51.75 130.9375 C-52.73484375 130.38964844 -53.7196875 129.84179688 -54.734375 129.27734375 C-55.48203125 128.85582031 -56.2296875 128.43429687 -57 128 C-57 127.34 -57 126.68 -57 126 C-57.556875 125.896875 -58.11375 125.79375 -58.6875 125.6875 C-61.4769101 124.85821592 -63.6139064 123.65700944 -66 122 C-66 121.34 -66 120.68 -66 120 C-67.65 119.67 -69.3 119.34 -71 119 C-71.33 117.35 -71.66 115.7 -72 114 C-73.65 114 -75.3 114 -77 114 C-77.33 113.01 -77.66 112.02 -78 111 C-80.97 110.505 -80.97 110.505 -84 110 C-84 109.01 -84 108.02 -84 107 C-84.99 107 -85.98 107 -87 107 C-87 106.34 -87 105.68 -87 105 C-87.763125 104.896875 -88.52625 104.79375 -89.3125 104.6875 C-92.18416484 103.95288806 -93.23042094 103.3283935 -95 101 C-95 100.34 -95 99.68 -95 99 C-96.32 98.67 -97.64 98.34 -99 98 C-99 97.34 -99 96.68 -99 96 C-100.2065625 95.62875 -100.2065625 95.62875 -101.4375 95.25 C-104 94 -104 94 -104.8125 91.875 C-104.874375 91.25625 -104.93625 90.6375 -105 90 C-106.65 89.67 -108.3 89.34 -110 89 C-110 87.35 -110 85.7 -110 84 C-111.32 84 -112.64 84 -114 84 C-114 82.68 -114 81.36 -114 80 C-114.66 80 -115.32 80 -116 80 C-117.28317892 76.15046324 -117.06643637 73.05261865 -117 69 C-117.66 69 -118.32 69 -119 69 C-119.35368021 61.87399867 -118.95671348 56.52940894 -116 50 C-115.34 50 -114.68 50 -114 50 C-114 48.35 -114 46.7 -114 45 C-112.515 44.505 -112.515 44.505 -111 44 C-110.505 41.03 -110.505 41.03 -110 38 C-109.34 38 -108.68 38 -108 38 C-108 37.34 -108 36.68 -108 36 C-106.515 35.505 -106.515 35.505 -105 35 C-104.505 34.484375 -104.01 33.96875 -103.5 33.4375 C-102 32 -102 32 -99 32 C-99 31.34 -99 30.68 -99 30 C-86.44870583 24.55321197 -69.43531168 23.79978433 -56.5625 28.5625 C-54.7990625 29.2740625 -54.7990625 29.2740625 -53 30 C-53 30.66 -53 31.32 -53 32 C-51.02 32.33 -49.04 32.66 -47 33 C-47 33.99 -47 34.98 -47 36 C-46.34 36 -45.68 36 -45 36 C-44.505 31.05 -44.505 31.05 -44 26 C-43.34 26 -42.68 26 -42 26 C-42.04125 25.2575 -42.0825 24.515 -42.125 23.75 C-41.99190502 20.82191047 -41.41522862 19.51596199 -40 17 C-39.690625 16.154375 -39.38125 15.30875 -39.0625 14.4375 C-37.99316242 11.98431378 -37.08512336 10.65072266 -35 9 C-34.34 9 -33.68 9 -33 9 C-33 8.01 -33 7.02 -33 6 C-30.03 5.505 -30.03 5.505 -27 5 C-27 4.34 -27 3.68 -27 3 C-24.36 2.67 -21.72 2.34 -19 2 C-19 1.34 -19 0.68 -19 0 C-12.97127109 -2.0095763 -6.15025498 -1.29479052 0 0 Z M-2 6 C-2 6.66 -2 7.32 -2 8 C-0.35 8 1.3 8 3 8 C0.61837991 6.58614089 0.61837991 6.58614089 -2 6 Z M12 16 C12.33 17.32 12.66 18.64 13 20 C13.66 19.67 14.32 19.34 15 19 C14.67 18.01 14.34 17.02 14 16 C13.34 16 12.68 16 12 16 Z M16 21 C17 24 17 24 17 24 Z M-11 28 C-13.17477572 30.34346271 -13.17477572 30.34346271 -15 33 C-15.66 33.66 -16.32 34.32 -17 35 C-16.34 35 -15.68 35 -15 35 C-15.88505747 42.45977011 -15.88505747 42.45977011 -16.625 45.9375 C-16.810625 46.9584375 -16.810625 46.9584375 -17 48 C-16.67 48.33 -16.34 48.66 -16 49 C-15.76298761 51.85877909 -15.57780818 54.69883297 -15.4375 57.5625 C-15.39431641 58.36880859 -15.35113281 59.17511719 -15.30664062 60.00585938 C-15.20024738 62.00368805 -15.09959112 64.0018207 -15 66 C-15.66 66 -16.32 66 -17 66 C-17 66.66 -17 67.32 -17 68 C-16.34 68 -15.68 68 -15 68 C-14.505 71.465 -14.505 71.465 -14 75 C-14.99 75 -15.98 75 -17 75 C-17.33 76.98 -17.66 78.96 -18 81 C-18.66 81 -19.32 81 -20 81 C-20.33 82.65 -20.66 84.3 -21 86 C-23.64 86.33 -26.28 86.66 -29 87 C-29 87.66 -29 88.32 -29 89 C-33.91295354 88.5788897 -35.61566903 86.38433097 -39 83 C-40.2684375 82.814375 -40.2684375 82.814375 -41.5625 82.625 C-44 82 -44 82 -45.203125 80.39453125 C-46.2019831 78.63246114 -47.10742099 76.81821651 -48 75 C-48.66 75 -49.32 75 -50 75 C-50 74.01 -50 73.02 -50 72 C-50.99 71.505 -50.99 71.505 -52 71 C-52.1546875 69.7934375 -52.1546875 69.7934375 -52.3125 68.5625 C-52.539375 67.716875 -52.76625 66.87125 -53 66 C-54.64551962 65.28272222 -56.31422289 64.61674772 -58 64 C-58.28746094 63.33613281 -58.57492187 62.67226563 -58.87109375 61.98828125 C-59.81820403 59.77744295 -59.81820403 59.77744295 -62.1640625 59.390625 C-63.38222656 59.32101562 -63.38222656 59.32101562 -64.625 59.25 C-65.44226563 59.19328125 -66.25953125 59.1365625 -67.1015625 59.078125 C-68.04128906 59.03945313 -68.04128906 59.03945313 -69 59 C-69 58.34 -69 57.68 -69 57 C-76.93266581 54.90256386 -76.93266581 54.90256386 -84.625 56.6875 C-87.1240869 58.95952741 -87.1240869 58.95952741 -89 62 C-88.6758631 65.32240324 -88.39223697 66.60776303 -86 69 C-85.01 69 -84.02 69 -83 69 C-83 70.65 -83 72.3 -83 74 C-82.38125 74.103125 -81.7625 74.20625 -81.125 74.3125 C-79 75 -79 75 -77 78 C-76.01 78 -75.02 78 -74 78 C-74 78.66 -74 79.32 -74 80 C-73.071875 80.598125 -72.14375 81.19625 -71.1875 81.8125 C-68 84 -68 84 -66.4375 86.6875 C-65.1873539 89.26608512 -65.1873539 89.26608512 -62.3125 89.8125 C-61.1678125 89.9053125 -61.1678125 89.9053125 -60 90 C-60 90.66 -60 91.32 -60 92 C-58.02 92.33 -56.04 92.66 -54 93 C-54 93.99 -54 94.98 -54 96 C-52.68 96 -51.36 96 -50 96 C-50 96.66 -50 97.32 -50 98 C-45.93426439 101.19560041 -45.93426439 101.19560041 -41 102 C-41 102.66 -41 103.32 -41 104 C-39.23042094 106.3283935 -38.18416484 106.95288806 -35.3125 107.6875 C-34.549375 107.790625 -33.78625 107.89375 -33 108 C-33 108.66 -33 109.32 -33 110 C-32.01 110.33 -31.02 110.66 -30 111 C-29.67 111.66 -29.34 112.32 -29 113 C-26.47266765 113.65555119 -26.47266765 113.65555119 -24 114 C-24 114.66 -24 115.32 -24 116 C-22.68 116 -21.36 116 -20 116 C-20 117.98 -20 119.96 -20 122 C-19.01 122 -18.02 122 -17 122 C-17 122.66 -17 123.32 -17 124 C-14.24921116 124.91692961 -12.64051087 125.10886083 -9.8125 125.0625 C-8.554375 125.041875 -7.29625 125.02125 -6 125 C-6 125.66 -6 126.32 -6 127 C-4.515 127.495 -4.515 127.495 -3 128 C-2.34 128.66 -1.68 129.32 -1 130 C-0.67 124.72 -0.34 119.44 0 114 C0.66 114 1.32 114 2 114 C2.13277344 113.21753906 2.26554687 112.43507813 2.40234375 111.62890625 C2.57894531 110.61699219 2.75554687 109.60507812 2.9375 108.5625 C3.11152344 107.55316406 3.28554688 106.54382813 3.46484375 105.50390625 C4 103 4 103 5 102 C5.24270962 99.36914761 5.42660175 96.76187354 5.5625 94.125 C5.6042334 93.34850098 5.6459668 92.57200195 5.68896484 91.77197266 C6.24639045 80.82140354 6.15428636 69.91584388 5 59 C4.67 58.67 4.34 58.34 4 58 C3.76712992 56.31816052 3.58735834 54.6287584 3.4375 52.9375 C3.35371094 52.01839844 3.26992188 51.09929687 3.18359375 50.15234375 C3.12300781 49.44207031 3.06242187 48.73179687 3 48 C1.515 47.505 1.515 47.505 0 47 C0.20625 46.484375 0.4125 45.96875 0.625 45.4375 C1.15887026 41.96734329 0.07676761 39.29364209 -1 36 C-1.66 36 -2.32 36 -3 36 C-3.103125 35.236875 -3.20625 34.47375 -3.3125 33.6875 C-4.05539884 30.78344089 -4.56993983 29.71004234 -7 28 C-8.32 28 -9.64 28 -11 28 Z M24 46 C24 47.32 24 48.64 24 50 C24.66 50 25.32 50 26 50 C25.67 48.68 25.34 47.36 25 46 C24.67 46 24.34 46 24 46 Z M26 54 C26 55.65 26 57.3 26 59 C26.99 58.01 27.98 57.02 29 56 C28.01 55.34 27.02 54.68 26 54 Z M13 90 C13 92.97 13 95.94 13 99 C13.33 99 13.66 99 14 99 C14.33 96.03 14.66 93.06 15 90 C14.34 90 13.68 90 13 90 Z M10 105 C10 106.65 10 108.3 10 110 C10.33 110 10.66 110 11 110 C11 108.35 11 106.7 11 105 C10.67 105 10.34 105 10 105 Z M7 114 C6.67 115.98 6.34 117.96 6 120 C6.66 119.67 7.32 119.34 8 119 C8.65555119 116.47266765 8.65555119 116.47266765 9 114 C8.34 114 7.68 114 7 114 Z M5 121 C4.34 121.66 3.68 122.32 3 123 C3 123.99 3 124.98 3 126 C2.34 126 1.68 126 1 126 C1.33 126.66 1.66 127.32 2 128 C3.32 127.34 4.64 126.68 6 126 C6 124.35 6 122.7 6 121 C5.67 121 5.34 121 5 121 Z " fill="#F8C45B" transform="translate(442,297)"/>
<path d="M0 0 C0.99 0 1.98 0 3 0 C2.67 2.64 2.34 5.28 2 8 C1.34 8 0.68 8 0 8 C0 8.66 0 9.32 0 10 C-0.99 9.67 -1.98 9.34 -3 9 C-2.30058404 5.85262818 -1.23921302 2.97411124 0 0 Z " fill="#FCC661" transform="translate(469,406)"/>
<path d="M0 0 C0.99 0 1.98 0 3 0 C3 0.66 3 1.32 3 2 C3.66 2 4.32 2 5 2 C5 3.65 5 5.3 5 7 C4.01 7 3.02 7 2 7 C2 5.68 2 4.36 2 3 C1.34 3 0.68 3 0 3 C0 2.01 0 1.02 0 0 Z " fill="#FDE298" transform="translate(478,199)"/>
</svg>
